<svg xmlns="http://www.w3.org/2000/svg" width="3817.697" height="1761.38">
    <path d="M248.917 1267.513C-210.823 488.916 278.883 99.137 792.405 73.649c531.03-26.357 1084.348 329.844 443.276 616.646 613.437 87.63 225.037 540.389-80.662 559.006-190.159 11.58-560.109-261.225-517.31-595.997 30.613-272.717 768.563-556.851 1062.561-523.55 251.847 28.528 224.322-163.012 441.8 1096.148C2228.16 23.87 2448.593 114.053 2680.095 71.125c269.037-49.885 440.475 328.002 556.193 670.354 93.312 276.064-110.99 385.277-320.01 443.732-256.287 71.673-534.283-249.989-298.99-567.24 783.15-736.474 2137.566 1147.933-64.22 1074.39" fill="none" stroke="#000" stroke-width="133.752" stroke-linecap="round" stroke-linejoin="round"/>
</svg>
