<svg xmlns="http://www.w3.org/2000/svg" width="1595.215" height="1567.715">
    <path d="M70.224 456.512c95.29-198.053 320.443-77.45 380.36 125.172 109.14 480.413-444.762 344.244-380.36-125.172 102.527-583.014 631.462-443.404 675.426-14.44-19.828 531.856-43.828 563.856 9.195 5.443 266.17-889.826 1113.161-11.237 441.279 453.57-295.314 204.298-492.14 44.182-813.777 149.913-560.72 184.323-28.568 589.679 344.211 400.985 156.25-79.091 290.16-374.264 443.767-395.594 343.402-47.68 403.265 141.307 334.888 310.075-56.722 140.001-402.449 96.003-426.42-234.525" fill="none" stroke="#000" stroke-width="130" stroke-linecap="round" stroke-linejoin="round"/>
</svg>
