<svg xmlns="http://www.w3.org/2000/svg" width="1569.065" height="1499.448">
    <path d="M102.532 609.234c95.29-198.053 288.135-216.92 348.052-14.297C559.724 1075.35 5.822 939.181 70.224 469.765 172.751-113.249 701.686 26.361 745.65 455.324c-19.828 531.857-43.828 563.857 9.195 5.444 266.17-889.826 1062.332-68.42 390.45 396.387-295.314 204.298-441.311 101.365-762.948 207.096-560.721 184.323-92.104 424.485 280.675 235.791 156.25-79.091 353.696-209.07 507.303-230.4 343.402-47.68 371.497 109.539 303.12 278.307-56.722 140.001-338.913 134.124-362.885-196.404" fill="none" stroke="#000" stroke-width="130" stroke-linecap="round" stroke-linejoin="round"/>
</svg>
