<svg xmlns="http://www.w3.org/2000/svg" width="3511.898" height="1082.04">
    <path d="M160.608 582.272c141.158-164.484 259.341-16.17 283.058 111.679 10.879 485.91-428.64 377.877-373.819-111.612C182.041-216.783 681.613 44.63 764.191 594.65c18.513 475.388 10.834 637.18 23.779-4.453 127.398-735.238 454.92-587.873 522.2-7.846 45.903 478.985-15.145 649.478 3.087 3.968 116.228-704.5 781.768-634.49 672.194-149.726-90.426 395.236-56.303 581.704 243.292 578.487 426.282-23.25 364.099-492.76 343.286-944.3 362.996 1761.05 1282.996 641.05 668.913 14.981" fill="none" stroke="#000" stroke-width="130" stroke-linecap="round" stroke-linejoin="round"/>
</svg>
