<svg xmlns="http://www.w3.org/2000/svg" width="4000.838" height="1115.142">
    <path d="M158.638 586.772c141.158-164.484 533.118-25.61 556.835 102.238 10.879 485.91-702.417 387.318-647.596-102.171 112.194-799.122 1102.676-537.71 1185.254 12.31 18.513 475.389 143.002 693.824 155.947 52.191C1536.476-83.898 1731.83 6.824 1799.11 586.85c45.903 478.986 117.023 640.038 135.255-5.472 116.228-704.5 649.6-625.05 540.026-140.285-90.426 395.236-56.303 581.704 243.292 578.487 426.282-23.25 364.1-492.76 343.286-944.3 362.996 1761.05 1282.996 641.05 668.913 14.98" fill="none" stroke="#000" stroke-width="130" stroke-linecap="round" stroke-linejoin="round"/>
</svg>
