<svg xmlns="http://www.w3.org/2000/svg" width="2410.385" height="1547.552">
    <path d="M98.044 594.264c103.818-134.802 365.844-81.938 388.8 174.828 30.04 336.025-436.082 294.433-421.61-219.945C79.703 34.77 807.553 17.964 971.621 235.125 1135.69 452.287 648.165 639.27 737.12 641.672c542.77 14.654 398.77 336.88 15.575 442.538l-394.952 108.9c-288.814 79.633-411.336 314.557 129.498 287.23l967.96-42.452" fill="none" stroke="#000" stroke-width="129.82" stroke-linecap="round" stroke-linejoin="round"/>
    <path d="M1281.558 555.895c103.818-134.802 365.844-81.938 388.8 174.828 30.04 336.025-436.082 294.433-421.611-219.945 14.47-514.377 742.32-531.183 906.389-314.022 164.067 217.162-323.457 404.145-234.503 406.547 542.77 14.654 398.77 336.88 15.575 442.538l-394.952 108.9c-288.814 79.633-411.336 314.557 129.498 287.23l673.797-16.873" fill="none" stroke="#000" stroke-width="129.82" stroke-linecap="round" stroke-linejoin="round"/>
</svg>
