<svg xmlns="http://www.w3.org/2000/svg" width="1197.604" height="1118.259" viewBox="0 0 1122.754 1048.368">
    <path d="M146.45 130.177C100.352 232.432 27.816 359.253 86.936 462.573 151.18 570.95 281.153 612.624 399.554 625.706c171.968 16.25 351.197-12.597 503.958-95.13 154.928-96.404 218.611-329.762 72.845-419.328-221.094-121.963-720.826 16.201-581.37 308.96 98.888 144.25 358.346 168.354 439.803 304.653 33.974 60.588 44.381 147.42-13.236 197.975-76.416 65.41-186.788 69.122-281.184 50.516-73.95-16.146-159.983-56.098-175.61-138.207l-1.17-10.12" fill="none" stroke="#000" stroke-width="130" stroke-linecap="round" stroke-linejoin="round"/>
</svg>
