<svg xmlns="http://www.w3.org/2000/svg" width="2143.593" height="2092.777">
    <g fill="none" stroke="#000" stroke-linecap="round" stroke-linejoin="round">
        <path d="M685.423 1499.694c-488.189-608.49 741.956-705.844 771.15-185.244 22.733 405.37-461.737 233.863-375.55-.246 146.026-396.652 946.378-348.948 957.18 32.461 8.47 299.103-427.02 681.014-776.78 681.029-534.912 6.61-1608.446-390.358-1032.73-1932.132" stroke-width="130"/>
        <path d="M493.423 875.694c-353.145-956.022 580.05-1136.664 576-96 52.05-848.664 516.447-867.14 569.94-498.492-8.361 243.582-167.189 243.582-137.94 450.492 129.935 392.112 873.853-63.145 473.593-623.01" stroke-width="107.25"/>
    </g>
</svg>
