<svg xmlns="http://www.w3.org/2000/svg" width="696.293" height="1023.865">
    <path d="M302.929 224.11c2.96 33.263 18.634 65.237 43.116 87.95 24.48 22.712 57.54 35.948 90.93 36.408 33.728.464 67.55-12.174 92.386-34.998 24.836-22.824 40.32-55.656 41.66-89.36 1.153-28.973-7.955-58.014-24.15-82.067-16.196-24.052-39.26-43.176-65.213-56.108-52.776-26.3-116.458-26.467-172.05-6.803-55.59 19.663-103.406 57.873-140.725 103.526-48.512 59.345-80.37 131.652-94.69 206.952-14.323 75.3-11.372 153.49 5.325 228.299 14.383 64.44 39.11 126.972 76.434 181.435 37.325 54.463 87.558 100.668 146.977 129.457 54.217 26.27 116.853 37.593 175.664 24.526 29.406-6.534 57.56-19.106 81.47-37.427 23.91-18.32 43.497-42.438 55.64-70.004 11.404-25.882 16.148-54.453 15.537-82.729-.612-28.276-6.477-56.287-15.536-83.08-14.902-44.08-38.878-85.596-72.73-117.523-33.85-31.927-77.951-53.799-124.354-57.256-46.403-3.457-94.733 12.55-127.132 45.95-16.2 16.7-28.275 37.46-34.262 59.942-5.987 22.482-5.81 46.646 1.02 68.887 7.628 24.833 23.579 47.03 44.683 62.178" fill="none" stroke="#000" stroke-width="130" stroke-linecap="round" stroke-linejoin="round"/>
</svg>
